<svg id="Livello_1" data-name="Livello 1" xmlns="http://www.w3.org/2000/svg" width="564.1" height="271.93" viewBox="0 0 564.1 271.93">
  <defs>
    <style>
      .cls-1 {
        fill: #0066ae;
      }

      .cls-2 {
        fill: #00a0ff;
      }

      .cls-3 {
        font-size: 54.91px;
      }

      .cls-10, .cls-3 {
        fill: #1e1c1a;
        font-family: GangsterGrotesk-Regular, Gangster Grotesk;
      }

      .cls-4 {
        letter-spacing: 0em;
      }

      .cls-5 {
        letter-spacing: 0.26em;
      }

      .cls-6 {
        letter-spacing: -0.02em;
      }

      .cls-7 {
        letter-spacing: 0.01em;
      }

      .cls-8 {
        letter-spacing: -0.02em;
      }

      .cls-9 {
        letter-spacing: -0.01em;
      }

      .cls-10 {
        font-size: 47.39px;
      }
    </style>
  </defs>
  <path class="cls-1" d="M83.7,30.35c-1.51-.11-3-.22-4.56-.22-33.31,0-60.32,26.64-60.32,59.52s27,59.51,60.32,59.51c1.54,0,3-.11,4.56-.22Z" transform="translate(-18.82 -17.19)"/>
  <rect class="cls-2" x="83.52" y="13.31" width="53.94" height="118.29"/>
  <text class="cls-3" transform="translate(160.88 211.03)">Digi<tspan class="cls-4" x="97.63" y="0">t</tspan><tspan x="121.36" y="0">a</tspan><tspan class="cls-5" x="150.73" y="0">l</tspan><tspan class="cls-6" x="178.57" y="0">S</tspan><tspan x="211.36" y="0">t</tspan><tspan class="cls-7" x="235.35" y="0">r</tspan><tspan class="cls-8" x="261" y="0">a</tspan><tspan class="cls-9" x="289.33" y="0">t</tspan><tspan x="312.95" y="0">egy</tspan></text>
  <text class="cls-10" transform="translate(160.88 258.23)">Consulting</text>
  <polygon points="536.52 2.36 536.52 67.11 467.31 67.11 467.31 2.36 448.47 2.36 448.47 142.55 467.31 142.55 467.31 83 536.52 83 536.52 142.55 555.36 142.55 555.36 2.36 536.52 2.36"/>
  <path d="M405.17,129.47c-5.16,5.62-10.46,9.73-15.76,12.23a43.17,43.17,0,0,1-18.51,3.92c-9,0-16.35-2.61-21.88-7.76a25.61,25.61,0,0,1-8.3-19.45,27.78,27.78,0,0,1,6-17.61c3.88-4.92,9.94-9.08,18-12.37Zm39.2-26.23,11.18-19.45H435.36l-7.94,13.55c-4.11,7.12-8,13.4-11.58,18.68l-42.51-42.9a74.29,74.29,0,0,1-10.21-13,22.93,22.93,0,0,1-3.29-11.63,14.9,14.9,0,0,1,4.57-11.19c3.05-2.93,7.42-4.41,13-4.41a18.94,18.94,0,0,1,12.18,4.28c3.19,2.57,4.82,6.22,5,11.13v.1s.15,3.49-2.81,9.25l-.08.14-2.08,3.68h19.9l.75-1.31a27.59,27.59,0,0,0,3-11.85v-.09a29,29,0,0,0-4.14-15.31,31.41,31.41,0,0,0-12.68-11.55,41.44,41.44,0,0,0-19-4.16c-11.15,0-20.06,3-26.49,8.86a29.5,29.5,0,0,0-9.73,22.62,35.74,35.74,0,0,0,3.06,14.75,52.51,52.51,0,0,0,8.76,13c-9.8,4.21-17.44,9.91-22.72,17a41.86,41.86,0,0,0-8.4,25.6c0,8.73,2.08,16.4,6.19,22.78a41.53,41.53,0,0,0,17.21,15c7.28,3.54,15.83,5.33,25.42,5.33a64.06,64.06,0,0,0,25.47-4.92c7.29-3.13,14.43-8.33,21.23-15.45l17.82,18h24.13l-31-31.2a232.53,232.53,0,0,0,16-25.3" transform="translate(-18.82 -17.19)"/>
  <path d="M239.58,99.07H290.9c-1.17,14.07-5.35,25.32-12.43,33.45-7.22,8.3-18.13,12.51-32.42,12.51-9.32,0-17.6-2.23-24.6-6.62a44.79,44.79,0,0,1-16.52-18.93c-4-8.21-6-18.18-6-29.64S201,68.42,205,60.21a44.75,44.75,0,0,1,17-18.93c7.27-4.4,16-6.63,25.8-6.63,10.48,0,19.17,2.38,25.84,7.08a30.64,30.64,0,0,1,12.38,18l.5,2H308l-.85-3.26a52,52,0,0,0-20-29.74c-10.47-7.6-23.72-11.45-39.39-11.45-13.8,0-26,3.1-36.15,9.22A62.24,62.24,0,0,0,188,52.09c-5.51,10.88-8.3,23.58-8.3,37.75s2.76,26.84,8.2,37.65A62,62,0,0,0,211,153c9.85,6.06,21.45,9.13,34.48,9.13,12.11,0,22-2.24,29.35-6.66A53.94,53.94,0,0,0,289.72,142c.59-.76,1.16-1.55,1.7-2.37.66-1,1.29-2.08,1.88-3.21l-.69,23.32h17.62v-76H239.58Z" transform="translate(-18.82 -17.19)"/>
</svg>
